# xmcd
#
# Track frame offsets:
#	150
#	12407
#	24854
#	37839
#	51479
#	62888
#	81560
#	97602
#	109653
#	126140
#	141906
#	155456
#	175662
#
# Disc length: 2519 seconds
#
# Revision: 1
# Processed by: cddbd v1.5.2PL0 Copyright (c) Steve Scherf et al.
# Submitted via: audiograbber 1.83.01
#
DISCID=a109d50d
DTITLE=Martin Cuffe - The Rarest Flowers
DYEAR=2004
DGENRE=
TTITLE0=The Rarest Flowers
TTITLE1=My Mary With The Golden Hair
TTITLE2=My Wild Rose Of Leitrim
TTITLE3=You're My Best Friend
TTITLE4=The Happiness Of Having You
TTITLE5=If This Old House Could Talk
TTITLE6=If We're Not Back In Love By Monday
TTITLE7=Any Town In Ireland
TTITLE8=He Was Sowin' Love
TTITLE9=She's My Rose
TTITLE10=The Door Is Always Open
TTITLE11=Three Leaf Shamrock
TTITLE12=I'm A Lonesome Fugitive
EXTD=
EXTT0=
EXTT1=
EXTT2=
EXTT3=
EXTT4=
EXTT5=
EXTT6=
EXTT7=
EXTT8=
EXTT9=
EXTT10=
EXTT11=
EXTT12=
PLAYORDER=
